# xmcd CD database file
#
# Track frame offsets:
#	150
#	7657
#	23250
#	42675
#	63470
#	81927
#	94325
#	106550
#	115597
#	131310
#	188972
#	205905
#	225797
#	245115
#	264887
#	280962
#	299417
#	311322
#	323130
#	338887
#
# Disc length: 4705 seconds
#
# Revision: 57
# Processed by: cddbd v1.5.2PL0 Copyright (c) Steve Scherf et al.
# Submitted via: CDex 1.51
#
DISCID=06125f14
DTITLE=Miles Davis and Gil Evans - Miles Davis and Gil Evans - Complete -4 - Quiet Nights and more
DYEAR=1962
DGENRE=Jazz
TTITLE0=Song, #2 [por: Prenda Minha (eng: Hold Me)] [P]
TTITLE1=Once Upon a Summertime [fra: La Valse des lilas] [P]
TTITLE2=por: Aos Pes da Cruz (eng: At the Foot of the Cross) [N]
TTITLE3=Song, #1 [spa: Adelita] [O]
TTITLE4=Wait Till You See Her [O]
TTITLE5=por: Corcovado (eng: Hunchback) [aka "Quiet Nights of Quiet Stars"] [N]
TTITLE6=Blue Xmas (To Whom It May Concern) [Q]
TTITLE7=Nothing Like You [Q]
TTITLE8=Devil May Care [R]
TTITLE9=The Time of the Barracudas [S]
TTITLE10=Falling Water (take 4) [T]
TTITLE11=Falling Water (take 6) [T]
TTITLE12=Falling Water (take 8) [T]
TTITLE13=Falling Water (take 9) [T]
TTITLE14=Springsville (take 5) [C]
TTITLE15=The Maids of Cadiz (take 11) [A] 
TTITLE16=The Maids of Cadiz (take 11, insert 1) [A]
TTITLE17=Lament (take 2) [D]
TTITLE18=The Duke (take 1) [A]
TTITLE19=I Don't Wanna Be Kissed [By Anyone But You] (53225 issued version) [D/E]
EXTD=YEAR: 1962
EXTT0=
EXTT1=
EXTT2=
EXTT3=
EXTT4=
EXTT5=
EXTT6=
EXTT7=
EXTT8=
EXTT9=
EXTT10=
EXTT11=
EXTT12=
EXTT13=
EXTT14=
EXTT15=
EXTT16=
EXTT17=
EXTT18=
EXTT19=
PLAYORDER=
